<svg width="358" height="337" viewBox="0 0 358 337" fill="none" xmlns="http://www.w3.org/2000/svg">
<path d="M323.072 118.857C290.765 118.857 277.557 96.0097 293.621 67.9862C302.903 51.7434 297.369 31.0382 281.127 21.7565L250.247 4.08573C236.146 -4.30344 217.94 0.694363 209.551 14.7953L207.587 18.1867C191.523 46.2101 165.106 46.2101 148.863 18.1867L146.9 14.7953C138.868 0.694363 120.661 -4.30344 106.56 4.08573L75.6811 21.7565C59.4382 31.0382 53.9049 51.9219 63.1865 68.1647C79.4294 96.0097 66.2209 118.857 33.9137 118.857C15.3504 118.857 0 134.029 0 152.77V184.185C0 202.749 15.1719 218.099 33.9137 218.099C66.2209 218.099 79.4294 240.946 63.1865 268.969C53.9049 285.212 59.4382 305.917 75.6811 315.199L106.56 332.87C120.661 341.259 138.868 336.261 147.257 322.16L149.22 318.769C165.285 290.746 191.702 290.746 207.944 318.769L209.908 322.16C218.297 336.261 236.503 341.259 250.604 332.87L281.484 315.199C297.726 305.917 303.26 285.034 293.978 268.969C277.735 240.946 290.944 218.099 323.251 218.099C341.814 218.099 357.165 202.927 357.165 184.185V152.77C356.986 134.207 341.814 118.857 323.072 118.857ZM178.493 226.488C146.543 226.488 120.483 200.428 120.483 168.478C120.483 136.528 146.543 110.468 178.493 110.468C210.443 110.468 236.503 136.528 236.503 168.478C236.503 200.428 210.443 226.488 178.493 226.488Z" fill="#292D32"/>
</svg>
